<?xml version="1.0" encoding="UTF-8" standalone="no"?>
<!-- Created with Inkscape (http://www.inkscape.org/) -->

<svg
   version="1.1"
   id="svg2"
   width="2666.6667"
   height="2666.6667"
   viewBox="0 0 2666.6667 2666.6667"
   xmlns="http://www.w3.org/2000/svg"
   xmlns:svg="http://www.w3.org/2000/svg">
  <defs
     id="defs6" />
  <g
     id="g8"
     transform="matrix(1.3333333,0,0,-1.3333333,0,2666.6667)">
    <g
       id="g10"
       transform="scale(0.1)">
      <path
         d="M 7475.5,6304.7 C 7333.99,6110.6 7125.34,5983.2 6888,5946 c -237.31,-37.3 -474.96,20.2 -669.1,161.7 -194.15,141.5 -321.56,350.1 -358.78,587.5 -37.22,237.3 20.21,474.9 161.72,669.1 141.51,194.1 350.16,321.5 587.5,358.8 237.33,37.1 474.96,-20.3 669.1,-161.8 194.15,-141.5 321.56,-350.1 358.78,-587.5 37.22,-237.3 -20.21,-474.9 -161.72,-669.1 z m -4.46,1520.9 c -264.73,192.9 -588.73,271.2 -912.36,220.5 -668.07,-104.8 -1126.35,-733.5 -1021.59,-1401.6 50.75,-323.6 224.48,-608.1 489.21,-801.1 212.1,-154.6 462.23,-235.5 719.75,-235.5 63.9,0 128.27,4.9 192.61,15 323.62,50.8 608.11,224.5 801.07,489.2 192.95,264.8 271.27,588.8 220.52,912.4 -50.75,323.6 -224.48,608.1 -489.21,801.1"
         style="fill:#211d1d;fill-opacity:1;fill-rule:nonzero;stroke:none"
         id="path14" />
      <path
         d="m 8851.22,6144.5 -73.87,-191.6 -456.89,-55.4 -41.62,-63.6 c -32.8,-50.2 -68.25,-99 -105.37,-145.2 l -49.54,-61.6 100.59,-441.5 -159.75,-128.9 -422.92,180.2 -67.87,-34.3 c -53.26,-26.9 -108.49,-51.5 -164.19,-73 l -73.89,-28.6 -133.54,-432.4 -202.82,-31.8 -276.31,367.8 -76.04,4.1 c -59.75,3.3 -119.89,9.5 -178.74,18.7 l -78.16,12.1 -331.65,-307.5 -191.55,73.8 -55.47,456.9 -63.6,41.6 c -50.11,32.8 -98.94,68.3 -145.13,105.4 l -61.63,49.5 -441.45,-100.5 -128.95,159.7 180.2,422.9 -34.3,67.9 c -26.92,53.3 -51.48,108.5 -73.01,164.2 l -28.55,73.9 -432.41,133.5 -31.8,202.8 367.73,276.4 4.15,76 c 3.25,59.7 9.53,119.9 18.65,178.7 l 12.1,78.2 -307.5,331.6 73.87,191.6 456.89,55.5 41.62,63.6 c 32.76,50 68.22,98.8 105.38,145.1 l 49.52,61.6 -100.58,441.5 159.75,128.9 422.92,-180.2 67.87,34.3 c 53.25,26.9 108.5,51.5 164.18,73 l 73.89,28.6 133.54,432.4 202.83,31.8 276.31,-367.7 76.04,-4.2 c 59.77,-3.2 119.91,-9.5 178.73,-18.6 l 78.18,-12.1 331.64,307.5 191.55,-73.9 55.47,-456.9 63.6,-41.6 c 50.07,-32.8 98.9,-68.2 145.13,-105.4 l 61.64,-49.5 441.44,100.6 128.95,-159.8 -180.21,-422.9 34.32,-67.9 c 26.89,-53.2 51.45,-108.4 72.98,-164.1 l 28.56,-73.9 432.41,-133.6 31.81,-202.8 -367.73,-276.3 -4.15,-76.1 c -3.25,-59.7 -9.53,-119.8 -18.65,-178.7 l -12.09,-78.2 z m 448.59,797.5 -93.85,598.4 -477.81,147.6 c -7.18,16.7 -14.57,33.3 -22.17,49.8 l 198.3,465.3 -380.48,471.4 -488.03,-111.2 c -14.38,10.7 -28.91,21.2 -43.57,31.6 l -61.03,502.7 -565.18,217.9 -366.66,-339.9 c -18.03,2.1 -36.12,4 -54.21,5.6 L 6641.2,9385.6 6042.77,9291.8 5895.2,8814 c -16.69,-7.2 -33.28,-14.6 -49.78,-22.2 l -465.39,198.3 -471.33,-380.5 111.2,-488 c -10.7,-14.4 -21.23,-28.9 -31.58,-43.6 l -502.74,-61 -217.94,-565.2 339.97,-366.6 c -2.1,-18.1 -3.97,-36.1 -5.63,-54.2 l -404.45,-304 93.84,-598.4 477.82,-147.6 c 7.17,-16.6 14.57,-33.2 22.17,-49.7 l -198.31,-465.4 380.49,-471.4 488.04,111.2 c 14.36,-10.7 28.9,-21.2 43.56,-31.5 l 61.03,-502.8 565.18,-217.9 366.66,339.9 c 18.04,-2.1 36.12,-3.9 54.21,-5.6 l 303.92,-404.4 598.43,93.8 147.57,477.8 c 16.68,7.2 33.29,14.6 49.78,22.2 l 465.39,-198.3 471.33,380.5 -111.21,488 c 10.7,14.4 21.23,28.9 31.59,43.6 l 502.74,61 217.93,565.2 -339.96,366.6 c 2.1,18.1 3.97,36.2 5.62,54.3 l 404.46,303.9"
         style="fill:#211d1d;fill-opacity:1;fill-rule:nonzero;stroke:none"
         id="path16" />
      <path
         d="m 11136.3,8660.4 c -581.2,0 -1053.9,472.8 -1053.9,1054 v 65.8 c 315.2,-149 679.2,-234.2 1066.6,-234.2 377,0 731.8,80.6 1041.2,222.3 v -53.9 c 0,-581.2 -472.8,-1054 -1053.9,-1054 z m -1833.12,2700.3 v 115.6 l -108.91,38.5 c -1.88,0.7 -189.19,70.9 -263.86,236.7 -34.93,77.5 -39.93,167.9 -15.2,269.6 h 4427.89 c 38.1,-115.5 39.7,-214.9 4.5,-296.2 -64.5,-149.1 -237.7,-208 -238.3,-208.2 l -114.5,-36 v -120 c 0,-820.3 -828,-1487.8 -1845.8,-1487.8 -1017.8,0 -1845.82,667.5 -1845.82,1487.8 z m -762.57,1051.4 360.93,159.8 v 636.9 c 0,887.8 620.64,1659 1531.36,1932.4 v -1301.4 h 327 v 1535.5 c 0,2 9.2,14.4 30.7,14.4 h 752.9 c 21.5,0 30.7,-12.4 30.7,-14.4 v -1535.5 h 327 v 1283.5 c 877.8,-288.7 1475.3,-1051.6 1475.3,-1914.5 v -657.4 l 298.1,-159.8 v -43.5 H 8540.61 Z M 9779.37,5780.5 h 6023.13 l -636.8,2547.1 -2654,1268.3 c 3.4,39.1 5.5,78.5 5.5,118.5 v 237.7 c 459.4,311.8 764,776.9 800.8,1301.2 102,54.3 248.9,159 327.7,337.2 57.7,130.4 69.5,274.7 35.9,430.6 h 320 v 566.3 l -298.2,159.7 v 461.7 c 0,1043.6 -741.6,1959.5 -1816.1,2260.5 -42.9,142.6 -180.7,247.3 -343.8,247.3 h -752.9 c -156.8,0 -290.2,-96.7 -338.4,-230.9 -512.42,-131.3 -974.95,-411.1 -1310.91,-795.1 -365.45,-417.8 -566.72,-944 -566.72,-1481.8 v -424.1 L 8213.64,12625 v -603.9 H 8582 c -22.35,-144.3 -5.75,-279.6 50.29,-404 85.19,-189 242.47,-302.7 347.48,-361.1 35.27,-515.6 329.61,-974.2 775.62,-1286.4 v -255.2 c 0,-44.3 2.3,-88 6.39,-131.2 l -887.21,-431.6 143.03,-294 816.68,397.3 c 189.82,-536.2 701.62,-921.4 1302.02,-921.4 604.7,0 1119.6,390.9 1306,933.2 L 14885.8,8099 15383.7,6107.5 H 9779.37 v -327"
         style="fill:#211d1d;fill-opacity:1;fill-rule:nonzero;stroke:none"
         id="path18" />
    </g>
  </g>
</svg>
