<?xml version="1.0" encoding="UTF-8" standalone="no"?>
<!-- Created with Inkscape (http://www.inkscape.org/) -->

<svg
   version="1.1"
   id="svg2"
   width="5164"
   height="5164"
   viewBox="0 0 5164 5164"
   sodipodi:docname="vecteezy_citizen-developer-male-icon-style_21265000.eps"
   xmlns:inkscape="http://www.inkscape.org/namespaces/inkscape"
   xmlns:sodipodi="http://sodipodi.sourceforge.net/DTD/sodipodi-0.dtd"
   xmlns="http://www.w3.org/2000/svg"
   xmlns:svg="http://www.w3.org/2000/svg">
  <defs
     id="defs6" />
  <sodipodi:namedview
     id="namedview4"
     pagecolor="#ffffff"
     bordercolor="#000000"
     borderopacity="0.25"
     inkscape:showpageshadow="2"
     inkscape:pageopacity="0.0"
     inkscape:pagecheckerboard="0"
     inkscape:deskcolor="#d1d1d1" />
  <g
     id="g8"
     inkscape:groupmode="layer"
     inkscape:label="ink_ext_XXXXXX"
     transform="matrix(1.3333333,0,0,-1.3333333,0,5164)">
    <g
       id="g10"
       transform="scale(0.1)">
      <path
         d="M 35554,10670 H 20795 c -221,0 -402,181 -402,402 0,221 181,402 402,402 h 14759 c 221,0 394,181 394,394 v 3073 c 0,1608 -1009,3057 -2514,3625 l -6052,1986 c -165,55 -276,205 -276,378 v 2380 c 0,221 181,402 402,402 221,0 402,-181 402,-402 v -2088 l 5784,-1899 c 8,0 8,0 16,-8 1820,-678 3042,-2435 3042,-4373 v -3073 c -8,-664 -536,-1199 -1198,-1199 z m -16579,9085 c -165,0 -323,102 -378,276 -71,213 47,433 252,504 l 2080,686 v 2088 c 0,221 181,402 402,402 221,0 402,-181 402,-402 v -2380 c 0,-173 -110,-323 -276,-378 l -2356,-772 c -39,-16 -87,-24 -126,-24 v 0"
         style="fill:#000000;fill-opacity:1;fill-rule:evenodd;stroke:none"
         id="path12" />
      <path
         d="m 32111,10670 c -221,0 -402,181 -402,402 v 2608 c 0,221 181,402 402,402 221,0 402,-181 402,-402 v -2608 c -8,-221 -190,-402 -402,-402"
         style="fill:#000000;fill-opacity:1;fill-rule:evenodd;stroke:none"
         id="path14" />
      <path
         d="m 29045,27950 c -39,0 -71,8 -110,16 -213,63 -339,276 -276,489 79,276 205,559 339,859 496,1095 1056,2332 -181,4342 -16,32 -32,63 -39,95 -8,32 -252,756 -1198,1340 -1284,788 -3254,898 -5697,315 -32,-8 -63,-8 -95,-8 h -2813 l 1150,-1237 c 79,-87 110,-197 102,-307 -8,-110 -71,-213 -158,-284 -87,-63 -2191,-1702 47,-4886 126,-181 87,-426 -95,-552 -181,-126 -426,-87 -552,95 -1395,1986 -1300,3499 -969,4421 205,583 536,1009 772,1269 l -1489,1608 c -110,118 -134,284 -71,433 63,142 205,236 362,236 h 3680 c 2711,630 4830,481 6312,-465 1017,-646 1379,-1466 1458,-1686 1426,-2356 693,-3979 205,-5051 -126,-284 -236,-520 -299,-741 -46,-190 -211,-301 -385,-301 v 0"
         style="fill:#000000;fill-opacity:1;fill-rule:evenodd;stroke:none"
         id="path16" />
      <path
         d="m 24420,21725 c -1340,0 -2592,520 -3546,1466 -953,953 -1481,2214 -1481,3562 v 2293 c 0,165 8,323 24,489 32,307 102,591 189,859 378,1080 1182,1789 2451,2175 8,0 16,8 24,8 95,24 2143,504 3444,-780 481,205 1474,536 2372,173 654,-260 1111,-812 1371,-1647 118,-370 173,-780 173,-1206 v -2364 c 0,-2758 -2238,-5012 -4996,-5027 -9,-1 -17,-1 -25,-1 z m 24,394 v 0 z m -2160,9685 c -1324,-410 -1726,-1111 -1923,-1678 -71,-213 -126,-441 -150,-686 -16,-126 -24,-260 -24,-402 v -2293 c 0,-1135 441,-2198 1245,-3002 804,-796 1875,-1237 3010,-1229 v 0 c 2317,16 4208,1915 4208,4232 v 2363 c 0,347 -47,670 -142,969 -181,591 -489,977 -906,1143 -859,347 -1970,-260 -1986,-268 -173,-95 -386,-55 -504,102 -913,1150 -2686,780 -2828,749 v 0"
         style="fill:#000000;fill-opacity:1;fill-rule:evenodd;stroke:none"
         id="path18" />
      <path
         d="m 24420,10670 c -221,0 -402,181 -402,402 v 7636 c 0,221 181,402 402,402 221,0 402,-173 402,-394 v -7644 c -8,-221 -181,-402 -402,-402"
         style="fill:#000000;fill-opacity:1;fill-rule:evenodd;stroke:none"
         id="path20" />
      <path
         d="m 27462,16217 c -165,0 -331,47 -473,150 l -2797,2017 c -8,8 -8,8 -16,16 l -3073,2206 c -181,126 -221,378 -95,552 126,181 378,221 552,95 l 3089,-2214 c 8,-8 8,-8 16,-16 l 2789,-2002 c 8,0 8,0 16,0 l 3026,3113 c 150,158 402,158 559,8 158,-150 165,-402 8,-559 l -3026,-3113 c -150,-166 -363,-253 -575,-253 v 0"
         style="fill:#000000;fill-opacity:1;fill-rule:evenodd;stroke:none"
         id="path22" />
      <path
         d="m 21378,16217 c -213,0 -426,79 -583,244 l -292,299 c -150,158 -150,410 8,559 158,150 410,150 559,-8 l 292,-299 c 8,-8 8,-8 16,0 l 2813,2017 c 8,8 8,8 16,8 l 3073,2206 c 181,126 426,87 552,-95 126,-181 87,-426 -87,-559 l -3089,-2222 c -8,-8 -8,-8 -16,-8 l -2789,-2002 c -142,-85 -307,-140 -473,-140 v 0"
         style="fill:#000000;fill-opacity:1;fill-rule:evenodd;stroke:none"
         id="path24" />
      <path
         d="M 19668,2159 H 3507 c -835,0 -1521,686 -1521,1521 v 15350 c 0,835 686,1521 1521,1521 h 16170 c 835,0 1521,-686 1521,-1521 V 3680 c -9,-835 -687,-1521 -1530,-1521 z M 3507,19755 c -402,0 -725,-323 -725,-725 V 3680 c 0,-402 323,-725 725,-725 h 16170 c 402,0 725,323 725,725 v 15350 c 0,402 -323,725 -725,725 H 3507 v 0"
         style="fill:#000000;fill-opacity:1;fill-rule:evenodd;stroke:none"
         id="path26" />
      <path
         d="M 20795,15705 H 2380 c -221,0 -402,181 -402,394 0,221 181,402 402,402 h 18408 c 221,0 394,-181 394,-402 7,-213 -166,-394 -387,-394 v 0"
         style="fill:#000000;fill-opacity:1;fill-rule:evenodd;stroke:none"
         id="path28" />
      <path
         d="M 8896,17052 H 5090 c -591,0 -1072,481 -1072,1072 0,591 481,1072 1072,1072 h 3806 c 591,0 1072,-481 1072,-1072 0,-591 -481,-1072 -1072,-1072 z m -3806,1356 c -150,0 -276,-126 -276,-276 0,-158 126,-276 276,-276 h 3806 c 150,0 276,126 276,276 0,158 -126,276 -276,276 H 5090 v 0"
         style="fill:#000000;fill-opacity:1;fill-rule:evenodd;stroke:none"
         id="path30" />
      <path
         d="m 12356,17730 h -1087 c -221,0 -402,181 -402,402 0,221 181,402 402,402 h 1087 c 221,0 402,-181 402,-402 0,-221 -182,-402 -402,-402 v 0"
         style="fill:#000000;fill-opacity:1;fill-rule:evenodd;stroke:none"
         id="path32" />
      <path
         d="m 15145,17730 h -1087 c -221,0 -402,181 -402,402 0,221 181,402 402,402 h 1087 c 221,0 402,-181 402,-402 -8,-221 -181,-402 -402,-402"
         style="fill:#000000;fill-opacity:1;fill-rule:evenodd;stroke:none"
         id="path34" />
      <path
         d="m 17927,17730 h -1087 c -221,0 -402,181 -402,402 0,221 181,402 402,402 h 1087 c 221,0 402,-181 402,-402 0,-221 -182,-402 -402,-402 v 0"
         style="fill:#000000;fill-opacity:1;fill-rule:evenodd;stroke:none"
         id="path36" />
      <path
         d="m 12253,10252 c -158,0 -315,102 -370,260 l -1332,3554 c -79,205 24,433 236,512 205,79 433,-24 512,-236 l 1332,-3554 c 79,-205 -24,-433 -236,-512 -47,-16 -94,-24 -142,-24 v 0"
         style="fill:#000000;fill-opacity:1;fill-rule:evenodd;stroke:none"
         id="path38" />
      <path
         d="m 9156,10252 c -79,0 -150,24 -221,71 l -2640,1773 c -110,71 -173,197 -173,331 0,134 63,260 173,331 l 2632,1773 c 181,126 433,71 552,-110 126,-181 71,-433 -110,-552 L 7226,12419 9369,10969 c 181,-126 229,-370 110,-552 -70,-102 -196,-165 -323,-165"
         style="fill:#000000;fill-opacity:1;fill-rule:evenodd;stroke:none"
         id="path40" />
      <path
         d="m 14018,10252 c -126,0 -252,63 -331,173 -126,181 -71,433 110,552 l 2143,1450 -2143,1450 c -181,126 -229,370 -110,552 126,181 370,229 552,110 l 2632,-1773 c 110,-71 173,-197 173,-331 0,-134 -63,-252 -173,-331 l -2632,-1773 c -63,-55 -142,-79 -221,-79 v 0"
         style="fill:#000000;fill-opacity:1;fill-rule:evenodd;stroke:none"
         id="path42" />
      <path
         d="M 17753,8187 H 5421 c -221,0 -402,181 -402,402 0,221 181,402 402,402 h 12332 c 221,0 402,-181 402,-402 -8,-220 -181,-402 -402,-402"
         style="fill:#000000;fill-opacity:1;fill-rule:evenodd;stroke:none"
         id="path44" />
      <path
         d="M 17753,6123 H 5421 c -221,0 -402,181 -402,402 0,221 181,402 402,402 h 12332 c 221,0 402,-181 402,-402 -8,-221 -181,-402 -402,-402"
         style="fill:#000000;fill-opacity:1;fill-rule:evenodd;stroke:none"
         id="path46" />
      <path
         d="M 17753,4058 H 5421 c -221,0 -402,181 -402,402 0,221 181,402 402,402 h 12332 c 221,0 402,-181 402,-402 -8,-220 -181,-402 -402,-402"
         style="fill:#000000;fill-opacity:1;fill-rule:evenodd;stroke:none"
         id="path48" />
    </g>
  </g>
</svg>
