<?xml version="1.0" encoding="UTF-8" standalone="no"?>
<!-- Created with Inkscape (http://www.inkscape.org/) -->

<svg
   version="1.1"
   id="svg2"
   width="5164"
   height="5164"
   viewBox="0 0 5164 5164"
   sodipodi:docname="vecteezy_project-manager-icon-style_21267496.eps"
   xmlns:inkscape="http://www.inkscape.org/namespaces/inkscape"
   xmlns:sodipodi="http://sodipodi.sourceforge.net/DTD/sodipodi-0.dtd"
   xmlns="http://www.w3.org/2000/svg"
   xmlns:svg="http://www.w3.org/2000/svg">
  <defs
     id="defs6" />
  <sodipodi:namedview
     id="namedview4"
     pagecolor="#ffffff"
     bordercolor="#000000"
     borderopacity="0.25"
     inkscape:showpageshadow="2"
     inkscape:pageopacity="0.0"
     inkscape:pagecheckerboard="0"
     inkscape:deskcolor="#d1d1d1" />
  <g
     id="g8"
     inkscape:groupmode="layer"
     inkscape:label="ink_ext_XXXXXX"
     transform="matrix(1.3333333,0,0,-1.3333333,0,5164)">
    <g
       id="g10"
       transform="scale(0.1)">
      <path
         d="m 19361,11481 c -221,0 -402,181 -402,402 v 10622 c 0,221 181,402 402,402 221,0 402,-181 402,-402 V 11883 c 0,-221 -181,-402 -402,-402 v 0"
         style="fill:#000000;fill-opacity:1;fill-rule:evenodd;stroke:none"
         id="path12" />
      <path
         d="m 14137,16910 c -221,0 -402,181 -402,402 v 1773 c 0,221 181,402 394,402 221,0 402,-181 402,-402 v -1773 c 0,-228 -182,-402 -394,-402"
         style="fill:#000000;fill-opacity:1;fill-rule:evenodd;stroke:none"
         id="path14" />
      <path
         d="M 26949,16903 H 11788 c -520,0 -938,418 -938,938 v 2096 c 0,1371 867,2616 2151,3097 8,0 8,0 16,8 l 3853,1261 v 1332 c 0,221 181,402 402,402 221,0 402,-181 402,-402 v -1615 c 0,-173 -110,-323 -276,-378 l -4121,-1347 c -969,-362 -1623,-1308 -1623,-2348 v -2096 c 0,-79 63,-142 142,-142 h 15161 c 79,0 142,63 142,142 v 2096 c 0,1040 -654,1986 -1623,2348 l -4114,1345 c -165,55 -276,205 -276,378 v 1576 c 0,221 181,402 402,402 221,0 402,-181 402,-402 v -1292 l 3853,-1261 c 8,0 8,0 16,-8 1284,-481 2151,-1718 2151,-3097 v -2096 c -23,-512 -448,-937 -961,-937 v 0"
         style="fill:#000000;fill-opacity:1;fill-rule:evenodd;stroke:none"
         id="path16" />
      <path
         d="m 24601,16910 c -221,0 -402,181 -402,402 v 1773 c 0,221 181,402 394,402 221,0 402,-181 402,-402 v -1773 c 0,-228 -173,-402 -394,-402"
         style="fill:#000000;fill-opacity:1;fill-rule:evenodd;stroke:none"
         id="path18" />
      <path
         d="m 21441,20685 c -134,0 -276,39 -394,126 l -1915,1371 c -8,0 -8,8 -16,8 l -2088,1497 c -181,126 -221,378 -95,559 126,181 378,221 552,95 l 2104,-1513 c 8,0 8,-8 16,-8 l 1812,-1300 1986,2041 c 150,158 402,158 559,8 158,-150 158,-402 8,-559 l -2057,-2120 c -125,-134 -298,-205 -472,-205 z m -86,756 v 0 0"
         style="fill:#000000;fill-opacity:1;fill-rule:evenodd;stroke:none"
         id="path20" />
      <path
         d="m 17296,20685 c -173,0 -355,71 -489,205 l -2057,2120 c -150,158 -150,410 8,559 158,149 410,150 559,-8 l 1986,-2041 1828,1308 c 8,0 8,8 16,8 l 2088,1505 c 181,126 426,87 552,-87 126,-181 87,-426 -95,-559 l -2096,-1513 c -8,0 -8,-8 -16,-8 l -1899,-1363 c -109,-87 -251,-126 -385,-126 z m 87,756 v 0 0"
         style="fill:#000000;fill-opacity:1;fill-rule:evenodd;stroke:none"
         id="path22" />
      <path
         d="m 23285,24420 h -1812 c -221,0 -394,181 -394,402 0,221 181,402 394,402 h 1812 c 433,0 788,323 788,725 v 6603 c 0,173 -16,331 -47,473 -252,1111 -1229,1292 -1269,1300 -79,16 -158,55 -221,110 -2025,2041 -4074,1671 -5437,1001 -575,-284 -1103,-670 -1521,-1127 -591,-646 -922,-1481 -922,-2356 v -6005 c 0,-394 355,-725 788,-725 h 1812 c 221,0 402,-181 402,-402 0,-221 -181,-402 -402,-402 h -1812 c -875,0 -1584,678 -1584,1521 v 6005 c 0,1072 402,2096 1127,2892 481,528 1087,977 1749,1300 1292,638 3822,1332 6272,-1072 394,-102 1481,-504 1789,-1875 47,-205 71,-410 71,-646 v -6603 c 1,-835 -708,-1521 -1583,-1521 v 0"
         style="fill:#000000;fill-opacity:1;fill-rule:evenodd;stroke:none"
         id="path24" />
      <path
         d="m 19392,24515 c -2175,0 -4035,1852 -4145,4121 v 8 l -55,2624 c 0,126 55,244 158,323 102,79 229,102 355,63 32,-8 2821,-780 5248,1080 95,71 221,95 331,71 118,-32 213,-102 268,-213 24,-39 536,-1048 1537,-922 110,16 229,-24 315,-95 87,-79 134,-181 134,-299 v -2624 c 0,-8 0,-16 0,-16 -111,-2277 -1963,-4121 -4146,-4121 z m -3341,4152 c 87,-1820 1623,-3357 3349,-3357 1726,0 3254,1537 3349,3357 v 2207 c -820,63 -1363,599 -1655,985 -2017,-1355 -4129,-1229 -5083,-1072 l 40,-2120 v 0"
         style="fill:#000000;fill-opacity:1;fill-rule:evenodd;stroke:none"
         id="path26" />
      <path
         d="m 8108,11655 c -221,0 -402,181 -402,402 v 749 c 0,883 717,1600 1600,1600 h 5681 c 441,0 804,362 804,804 v 2096 c 0,221 181,402 402,402 221,0 402,-181 402,-402 v -2096 c 0,-883 -717,-1600 -1600,-1600 H 9314 c -441,0 -804,-362 -804,-804 v -749 c 0,-221 -181,-402 -402,-402"
         style="fill:#000000;fill-opacity:1;fill-rule:evenodd;stroke:none"
         id="path28" />
      <path
         d="m 30621,11655 c -221,0 -402,181 -402,402 v 749 c 0,441 -362,804 -804,804 h -5681 c -883,0 -1600,717 -1600,1600 v 2096 c 0,221 181,402 394,402 221,0 402,-181 402,-402 v -2096 c 0,-441 362,-804 804,-804 h 5681 c 883,0 1600,-717 1600,-1600 v -749 c 8,-221 -173,-402 -394,-402 v 0"
         style="fill:#000000;fill-opacity:1;fill-rule:evenodd;stroke:none"
         id="path30" />
      <path
         d="M 10992,4988 H 5224 c -221,0 -402,181 -402,402 v 6666 c 0,221 181,402 394,402 h 5768 c 221,0 402,-181 402,-402 V 5390 c 8,-221 -173,-402 -394,-402 z m -5366,796 h 4972 v 5871 H 5626 V 5784"
         style="fill:#000000;fill-opacity:1;fill-rule:evenodd;stroke:none"
         id="path32" />
      <path
         d="m 33505,4988 h -5768 c -221,0 -402,181 -402,402 v 6666 c 0,221 181,402 394,402 h 5768 c 221,0 394,-181 394,-402 V 5390 c 8,-221 -165,-402 -386,-402 z m -5366,796 h 4972 v 5871 h -4972 v -5871 0"
         style="fill:#000000;fill-opacity:1;fill-rule:evenodd;stroke:none"
         id="path34" />
      <path
         d="m 20078,1978 h -1434 c -260,0 -520,142 -662,347 -118,173 -134,370 -63,559 l 150,370 c -189,63 -370,142 -552,229 l -158,-370 c -79,-181 -236,-307 -433,-347 -244,-47 -528,39 -709,221 l -1009,1009 c -181,181 -268,465 -221,709 39,205 165,362 355,433 l 370,158 c -87,181 -165,362 -229,552 l -370,-150 c -181,-79 -386,-55 -559,63 -205,134 -347,402 -347,662 v 1434 c 0,260 142,520 347,662 173,110 370,134 559,63 l 370,-150 c 63,189 142,370 229,552 l -370,158 c -181,79 -307,236 -355,433 -47,244 39,528 221,709 l 1009,1009 c 181,181 465,268 709,221 205,-39 362,-165 433,-355 l 158,-370 c 181,87 362,165 552,229 l -150,370 c -79,181 -55,386 63,559 142,205 402,347 662,347 h 1434 c 252,0 520,-142 662,-347 110,-173 134,-370 63,-559 l -150,-370 c 189,-63 370,-142 552,-229 l 158,370 c 79,181 236,307 433,355 244,47 528,-39 709,-221 l 1009,-1009 c 181,-181 268,-465 221,-709 -39,-205 -165,-362 -355,-433 l -370,-158 c 87,-181 165,-362 229,-552 l 370,150 c 181,79 386,55 559,-63 205,-142 347,-402 347,-662 V 6423 c 0,-260 -142,-520 -347,-662 -173,-118 -370,-134 -559,-63 l -370,150 c -63,-189 -142,-370 -229,-552 l 370,-158 c 181,-79 307,-236 355,-433 47,-244 -39,-528 -221,-709 L 22505,2987 c -181,-181 -465,-268 -709,-221 -205,39 -362,165 -433,347 l -158,370 c -181,-87 -362,-165 -552,-229 l 150,-370 c 79,-181 55,-386 -63,-559 -142,-205 -402,-347 -662,-347 z m -2742,2474 c 79,0 150,-24 221,-63 355,-229 733,-394 1150,-473 118,-24 213,-95 268,-205 55,-102 63,-229 16,-339 l -244,-591 h 1237 l -244,591 c -47,110 -39,236 16,339 55,102 158,181 268,205 410,87 796,244 1150,473 102,63 221,87 339,47 110,-32 205,-118 252,-229 l 244,-591 875,875 -591,244 c -110,47 -197,134 -229,252 -32,110 -16,236 47,339 229,347 394,733 473,1143 24,118 95,213 205,268 102,55 229,63 339,16 l 591,-244 v 1237 l -591,-244 c -110,-47 -236,-39 -339,16 -103,55 -181,158 -205,268 -87,410 -244,796 -473,1150 -63,102 -87,221 -47,339 32,110 118,205 229,252 l 591,244 -875,875 -244,-591 c -47,-110 -134,-197 -252,-229 -110,-32 -236,-16 -339,47 -355,229 -733,394 -1150,473 -118,24 -213,102 -268,205 -55,102 -63,229 -16,339 l 244,591 h -1237 l 244,-591 c 47,-110 39,-236 -16,-339 -55,-102 -158,-181 -268,-205 -410,-87 -796,-244 -1143,-473 -102,-63 -221,-87 -339,-47 -110,32 -205,118 -252,229 l -244,591 -875,-875 591,-244 c 110,-47 197,-134 229,-252 32,-110 16,-236 -47,-339 -229,-347 -394,-733 -473,-1143 -24,-118 -95,-213 -205,-276 -102,-55 -229,-63 -339,-16 l -591,244 V 6508 l 591,244 c 110,47 236,39 339,-16 103,-55 181,-158 205,-268 87,-410 244,-796 473,-1143 63,-102 87,-221 47,-339 -32,-110 -118,-205 -229,-252 l -591,-244 875,-875 244,591 c 47,110 134,197 252,229 32,9 71,17 111,17 v 0"
         style="fill:#000000;fill-opacity:1;fill-rule:evenodd;stroke:none"
         id="path36" />
      <path
         d="m 19361,4500 c -1450,0 -2624,1182 -2624,2624 0,1450 1182,2624 2624,2624 1450,0 2624,-1182 2624,-2624 8,-1442 -1174,-2624 -2624,-2624 z m 0,4460 c -1009,0 -1828,-820 -1828,-1828 0,-1009 820,-1828 1828,-1828 1008,0 1828,820 1828,1828 8,1008 -812,1828 -1828,1828"
         style="fill:#000000;fill-opacity:1;fill-rule:evenodd;stroke:none"
         id="path38" />
      <path
         d="M 9424,9976 H 6800 c -221,0 -402,181 -402,402 0,221 181,402 402,402 h 2624 c 221,0 402,-181 402,-402 -8,-221 -181,-402 -402,-402"
         style="fill:#000000;fill-opacity:1;fill-rule:evenodd;stroke:none"
         id="path40" />
      <path
         d="M 9424,8321 H 6800 c -221,0 -402,181 -402,402 0,221 181,402 402,402 h 2624 c 221,0 402,-181 402,-402 -8,-220 -181,-402 -402,-402"
         style="fill:#000000;fill-opacity:1;fill-rule:evenodd;stroke:none"
         id="path42" />
      <path
         d="M 9424,6667 H 6800 c -221,0 -402,181 -402,402 0,221 182,401 402,401 h 2624 c 221,0 402,-181 402,-402 -8,-220 -181,-401 -402,-401"
         style="fill:#000000;fill-opacity:1;fill-rule:evenodd;stroke:none"
         id="path44" />
      <path
         d="m 31937,9976 h -2624 c -221,0 -402,181 -402,402 0,221 181,402 402,402 h 2624 c 221,0 402,-181 402,-402 -8,-221 -189,-402 -402,-402"
         style="fill:#000000;fill-opacity:1;fill-rule:evenodd;stroke:none"
         id="path46" />
      <path
         d="m 31937,8321 h -2624 c -221,0 -402,181 -402,402 0,221 181,402 402,402 h 2624 c 221,0 402,-181 402,-402 -8,-220 -189,-402 -402,-402"
         style="fill:#000000;fill-opacity:1;fill-rule:evenodd;stroke:none"
         id="path48" />
      <path
         d="m 31937,6667 h -2624 c -221,0 -402,181 -402,402 0,221 181,402 402,402 h 2624 c 221,0 402,-181 402,-402 -8,-221 -189,-402 -402,-402"
         style="fill:#000000;fill-opacity:1;fill-rule:evenodd;stroke:none"
         id="path50" />
    </g>
  </g>
</svg>
